<svg width="423" height="80" viewBox="0 0 423 80" fill="none" xmlns="http://www.w3.org/2000/svg">
<path d="M39.6349 0C28.1892 0 0 28.4481 0 39.9998C0 51.5514 28.1892 80 39.6349 80C51.0805 80 79.2702 51.551 79.2702 39.9998C79.2702 28.4486 51.081 0 39.6349 0ZM33.4584 62.873C28.6319 61.5457 15.6554 38.6374 16.9708 33.7664C18.2863 28.8952 40.985 15.7995 45.8115 17.127C50.6383 18.4543 63.6148 41.3622 62.2994 46.2334C60.9839 51.1046 38.2849 64.2006 33.4584 62.873Z" fill="white"/>
<path d="M134.674 48.8651V48.8505L112.154 6.9305C111.71 6.10536 110.485 6.30298 110.319 7.22646L99.1031 69.4848C98.9932 70.0949 99.4576 70.6565 100.072 70.6565H108.75C109.226 70.6565 109.634 70.3128 109.719 69.84L116.25 33.5134L133.806 67.2906C134.175 68.0003 135.181 68.0003 135.55 67.2906L153.106 33.5134L159.638 69.84C159.723 70.3128 160.131 70.6565 160.607 70.6565H169.284C169.899 70.6565 170.363 70.0949 170.253 69.4848L159.038 7.22646C158.871 6.30298 157.646 6.10536 157.203 6.9305L134.674 48.8651Z" fill="white"/>
<path d="M206.74 8.10352C188.876 8.10352 174.882 22.1133 174.882 40.0017C174.882 57.8902 188.876 71.9078 206.74 71.9078C224.558 71.9078 238.517 57.8941 238.517 40.0017C238.517 22.1094 224.558 8.10352 206.74 8.10352ZM206.74 61.227C195.091 61.227 185.964 51.9027 185.964 40.0017C185.964 28.1008 195.091 18.7843 206.74 18.7843C218.343 18.7843 227.436 28.1047 227.436 40.0017C227.436 51.8988 218.343 61.227 206.74 61.227Z" fill="white"/>
<path d="M287.618 47.3188L250.263 6.74143C249.653 6.07969 248.556 6.51471 248.556 7.41797V69.6628C248.556 70.2117 248.997 70.6568 249.541 70.6568H258.572C259.116 70.6568 259.557 70.2117 259.557 69.6628V32.6151L296.829 73.269C297.438 73.9328 298.537 73.4982 298.537 72.594V10.349C298.537 9.80005 298.096 9.35503 297.552 9.35503H288.603C288.059 9.35503 287.618 9.80005 287.618 10.349V47.3188Z" fill="white"/>
<path d="M308.114 70.6564H317.81C318.194 70.6564 318.543 70.431 318.704 70.0791L325.968 54.2025H349.197L356.298 70.0715C356.457 70.4275 356.808 70.6564 357.195 70.6564H367.717C368.443 70.6564 368.919 69.89 368.603 69.23L338.802 6.98899C338.443 6.24032 337.387 6.24032 337.028 6.98899L307.227 69.23C306.911 69.89 307.387 70.6564 308.114 70.6564ZM330.522 44.3519L337.741 28.5412L344.825 44.3519H330.522Z" fill="white"/>
<path d="M392.142 9.35486H377.24C376.696 9.35486 376.255 9.79988 376.255 10.3488V69.6626C376.255 70.2115 376.696 70.6565 377.24 70.6565H392.142C410.616 70.6565 422.096 58.9115 422.096 40.0018C422.096 21.0921 410.616 9.35486 392.142 9.35486ZM392.142 60.1395H387.337V19.7901H392.142C404.135 19.7901 411.014 27.1575 411.014 40.0018C411.014 52.7993 404.135 60.1395 392.142 60.1395Z" fill="white"/>
</svg>
